<svg width="493" height="350" viewBox="0 0 493 350" fill="none" xmlns="http://www.w3.org/2000/svg">
<path fill-rule="evenodd" clip-rule="evenodd" d="M54.501 177.065C72.1862 177.065 87.862 184.661 97.815 196.375C112.175 188.232 129.131 183.449 147.369 183.449C151.658 183.449 155.83 183.797 159.942 184.303C157.886 178.108 156.734 171.556 156.734 164.761C156.734 127.026 190.859 96.4341 232.975 96.4341C251.717 96.4341 268.862 102.523 282.141 112.584C301.988 82.9078 338.087 62.987 379.474 62.987C442.177 62.987 493 108.549 493 164.761C493 219.583 444.621 264.154 384.069 266.335C384.069 266.461 384.092 266.588 384.092 266.725C384.092 312.708 342.505 350 291.212 350C262.211 350 236.335 338.075 219.285 319.408C202.258 338.075 176.382 350 147.369 350C99.1076 350 59.4599 316.964 54.9475 274.741C54.783 274.741 54.642 274.762 54.501 274.762C24.395 274.762 0 252.903 0 225.914C0 198.946 24.395 177.065 54.501 177.065Z" fill="#0C5A8E" fill-opacity="0.07"/>
<g filter="url(#filter0_d_5661_546)">
<ellipse cx="300.664" cy="45.3247" rx="8.84305" ry="8.83117" fill="#FFC71B"/>
<path d="M307.007 45.3247C307.007 48.8181 304.17 51.6558 300.664 51.6558C297.158 51.6558 294.321 48.8181 294.321 45.3247C294.321 41.8312 297.158 38.9935 300.664 38.9935C304.17 38.9935 307.007 41.8312 307.007 45.3247Z" stroke="#FFC71B" stroke-width="5"/>
</g>
<g filter="url(#filter1_d_5661_546)">
<ellipse cx="126.014" cy="230.779" rx="13.2646" ry="13.2468" fill="#F39C12"/>
</g>
<g filter="url(#filter2_d_5661_546)">
<path d="M410.413 199.87C410.413 210.403 401.862 218.948 391.305 218.948C380.748 218.948 372.197 210.403 372.197 199.87C372.197 189.337 380.748 180.792 391.305 180.792C401.862 180.792 410.413 189.337 410.413 199.87Z" stroke="#E74C3C" stroke-width="6"/>
</g>
<g filter="url(#filter3_d_5661_546)">
<path d="M194.258 29.8701C194.258 39.4602 186.472 47.2403 176.861 47.2403C167.25 47.2403 159.464 39.4602 159.464 29.8701C159.464 20.28 167.25 12.5 176.861 12.5C186.472 12.5 194.258 20.28 194.258 29.8701Z" stroke="#2ECC71" stroke-width="5"/>
</g>
<path d="M289.507 154.11C251.028 137.022 208.871 146.99 192.602 154.11C189.066 159.569 184.114 176.61 192.602 201.102C201.09 225.595 206.513 264.945 208.164 281.558C208.164 281.558 218.866 288.182 237.658 288.182C256.449 288.182 266.872 281.558 266.872 281.558L275.36 255.214C295.166 202.811 293.044 165.977 289.507 154.11Z" fill="#8E44AD"/>
<path d="M280.38 216.539C269.885 186.336 282.323 163.405 289.854 155.714C297.434 155.714 307.588 177.62 311.718 188.574L289.854 239.61L280.38 216.539Z" fill="#6C3483"/>
<path d="M318.204 259.413C298.848 260.541 291.076 247.192 289.61 240.377C292.543 219.507 321.626 164.937 335.801 140.26L344.599 152.246C346.066 187.498 342.4 258.003 318.204 259.413Z" fill="#8E44AD"/>
<path d="M207.279 167.237C210.695 181.138 196.842 192.819 189.488 196.922C177.152 200.301 148.353 203.583 131.842 189.682C115.332 175.78 96.0218 133.208 88.4307 113.659L97.6824 107.143C110.492 122.106 136.966 152.756 140.382 155.652C143.798 158.549 149.871 159.755 152.481 159.997L193.046 152.032C196.367 151.308 203.863 153.336 207.279 167.237Z" fill="#6C3483"/>
<path d="M356.507 153.609C357.058 156.484 348.009 157.682 343.415 157.922C332.941 144.696 317.919 100.177 311.718 79.5711L348.238 65.1948L364.776 107.605L343.415 114.074C343.415 127.876 352.143 146.181 356.507 153.609Z" fill="#2980B9"/>
<path d="M313.928 115.974L322.772 111.898L315.289 89.4805L305.085 92.1978L313.928 115.974Z" fill="#2471A3"/>
<path d="M382.781 25.4546L347.09 65.1948L364.776 108.247L413.413 115.974L382.781 25.4546Z" fill="#2471A3"/>
<path d="M346.137 140.43C349.999 144.777 352.803 138.618 353.722 134.995C352.067 126.843 347.976 124.805 346.137 124.805C344.528 128.202 342.275 136.082 346.137 140.43Z" fill="#F8B2A3"/>
<path d="M336.482 131.598V142.468C332.069 141.381 331.425 134.769 331.655 131.598C332.345 129.334 334.551 124.805 337.861 124.805C341.999 124.805 336.482 129.56 336.482 131.598Z" fill="#F8B2A3"/>
<path d="M93.4282 90.8855C96.9774 92.8123 97.4422 103.731 97.231 108.949L87.7005 113.766C75.0245 104.132 76.7381 91.6884 78.8508 87.2728C81.1747 90.6848 86.0761 98.2314 87.0902 101.122C88.1042 104.012 91.738 103.129 93.4282 102.326C91.9493 97.7096 89.8789 88.9587 93.4282 90.8855Z" fill="#F8B2A3"/>
<path d="M201.594 110.321C202.368 105.5 203.203 100.56 205.825 96.4539C208.149 92.764 212.023 89.4906 211.784 85.0865C211.665 82.944 210.533 80.9205 210.354 78.7779C210.116 75.326 212.619 72.0527 215.897 70.9814C218.638 70.0887 221.141 70.3863 223.465 71.6361L223.525 71.5171C226.981 61.1614 244.502 57.2334 253.799 59.1974C263.871 61.2804 272.512 69.0769 275.611 78.8969C276.326 81.099 276.743 83.4201 277.697 85.5031C281.689 94.5494 290.569 93.7757 293.43 108.536C295.813 121.034 288.841 134.603 281.809 139.305C263.513 151.386 230.438 148.292 218.817 144.304C198.256 137.341 200.819 115.439 201.653 110.321H201.594Z" fill="#F7622E"/>
<path d="M207.735 115.496C207.735 115.496 206.543 130.494 215.125 142.814C216.257 143.349 217.449 143.885 218.76 144.302C229.368 147.873 257.854 150.848 276.686 142.1C280.799 135.374 282.706 126.507 281.037 115.496H207.735Z" fill="#CB4335"/>
<path d="M252.669 129.427H236.698C237.592 137.045 235.327 142.937 228.414 147.877C232.705 152.459 238.843 155.316 245.577 155.316C252.014 155.316 257.794 152.757 262.026 148.591C254.278 143.532 251.716 137.402 252.669 129.427Z" fill="#F5959D"/>
<path d="M223.885 110.557C226.566 115.675 225.434 121.508 221.382 123.65C217.329 125.793 211.846 123.353 209.224 118.235C206.542 113.116 207.675 107.284 211.727 105.141C215.78 102.999 221.262 105.439 223.885 110.557Z" fill="#F27681"/>
<path d="M264.89 110.557C262.208 115.675 263.341 121.508 267.393 123.65C271.446 125.793 276.928 123.353 279.61 118.235C282.292 113.116 281.16 107.284 277.107 105.141C273.055 102.999 267.572 105.439 264.89 110.557Z" fill="#F27681"/>
<path d="M244.569 140.614C262.388 139.602 269.778 129.365 269.778 115.439V99.8458C269.778 89.5497 261.375 81.1581 251.065 81.1581H238.133C227.823 81.1581 225.32 86.9905 223.473 101.631C222.996 105.202 219.361 109.666 219.42 115.439C219.539 129.306 233.783 141.209 244.629 140.614H244.569Z" fill="#F8B2A3"/>
<path d="M248.257 127.164C245.932 127.164 244.025 125.676 244.025 125.676C244.025 125.676 244.323 125.676 244.86 125.676C246.528 125.676 250.462 125.378 252.547 122.7C252.547 122.7 252.726 126.033 249.806 126.926C249.27 127.104 248.793 127.164 248.316 127.164H248.257Z" fill="#F59593"/>
<path d="M257.089 108.53C257.089 110.494 256.374 112.042 255.539 112.042C254.705 112.042 253.99 110.435 253.99 108.53C253.99 106.566 254.705 105.019 255.539 105.019C256.374 105.019 257.089 106.626 257.089 108.53Z" fill="#3D342F"/>
<path d="M232.296 108.53C232.296 110.494 233.011 112.042 233.845 112.042C234.68 112.042 235.395 110.435 235.395 108.53C235.395 106.566 234.68 105.019 233.845 105.019C233.011 105.019 232.296 106.626 232.296 108.53Z" fill="#3D342F"/>
<path d="M226.156 104.372C226.156 104.372 234.082 100.147 238.313 99.6109C238.313 99.6109 236.764 95.0282 231.877 96.8137C226.096 98.8967 226.156 104.372 226.156 104.372Z" fill="#E74C3C"/>
<path d="M262.978 104.372C262.978 104.372 255.052 100.147 250.82 99.6109C250.82 99.6109 252.37 95.0282 257.257 96.8137C263.037 98.8967 262.978 104.372 262.978 104.372Z" fill="#E74C3C"/>
<path d="M248.44 115.795C248.44 117.461 247.129 118.771 245.52 118.771C243.911 118.771 242.6 117.461 242.6 115.795C242.6 114.128 243.911 109.784 245.52 109.784C247.129 109.784 248.44 114.128 248.44 115.795Z" fill="#F27681"/>
<path d="M232.292 120.492C232.173 120.492 232.114 120.492 231.994 120.432C231.637 120.254 231.518 119.897 231.696 119.54L233.842 115.254C234.021 114.957 234.438 114.778 234.736 114.957C235.093 115.135 235.213 115.492 235.034 115.85L232.888 120.135C232.769 120.373 232.531 120.492 232.292 120.492Z" fill="#F27681"/>
<path d="M228 120.492C227.881 120.492 227.821 120.492 227.702 120.432C227.344 120.254 227.225 119.897 227.404 119.54L229.549 115.254C229.728 114.957 230.145 114.778 230.443 114.957C230.801 115.135 230.92 115.492 230.741 115.85L228.596 120.135C228.477 120.373 228.238 120.492 228 120.492Z" fill="#F27681"/>
<path d="M258.391 120.492C258.152 120.492 257.914 120.373 257.795 120.135L255.649 115.85C255.471 115.552 255.649 115.135 255.947 114.957C256.305 114.778 256.722 114.957 256.841 115.254L258.987 119.54C259.166 119.837 258.987 120.254 258.689 120.432C258.57 120.492 258.51 120.492 258.391 120.492Z" fill="#F27681"/>
<path d="M261.737 120.082C261.498 120.082 261.26 119.963 261.141 119.725L258.995 115.499C258.816 115.202 258.995 114.785 259.293 114.606C259.651 114.428 260.068 114.606 260.187 114.904L262.332 119.189C262.511 119.487 262.332 119.903 262.034 120.082C261.915 120.141 261.856 120.141 261.737 120.141V120.082Z" fill="#F27681"/>
<path d="M244.448 123.892C242.005 123.892 240.157 123.297 239.979 123.297C239.561 123.178 239.323 122.702 239.442 122.286C239.561 121.869 240.038 121.631 240.455 121.75C240.515 121.75 247.964 124.012 251.838 119.072C252.136 118.715 252.613 118.655 253.03 118.953C253.388 119.25 253.447 119.726 253.149 120.143C250.706 123.238 247.19 124.012 244.448 124.012V123.892Z" fill="#F27681"/>
<path d="M264.054 77.6485L245.878 73.0658L220.728 81.2194L219.596 112.941C223.589 108.12 227.999 93.0034 230.204 84.8498C236.462 96.0387 256.426 96.9314 265.902 96.6339C266.021 110.322 269.656 115.441 269.656 115.441L271.027 96.3363L264.114 77.589L264.054 77.6485Z" fill="#F7622E"/>
<path d="M413.413 62.987L475.314 43.1169" stroke="#F39C12" stroke-width="3" stroke-linecap="round"/>
<path d="M406.781 45.3247L422.256 25.4546" stroke="#F39C12" stroke-width="3" stroke-linecap="round"/>
<path d="M420.045 87.2728H450.996" stroke="#F39C12" stroke-width="3" stroke-linecap="round"/>
<path fill-rule="evenodd" clip-rule="evenodd" d="M33.7393 14.4155C30.9778 14.4155 28.7393 16.6541 28.7393 19.4155V68.4164C28.7393 71.1778 30.9778 73.4164 33.7393 73.4164H105.052V73.4169H128.848L114.078 57.8473H114.077V19.4155C114.077 16.6541 111.839 14.4155 109.077 14.4155H33.7393Z" fill="#F4D03F"/>
<ellipse cx="50.8481" cy="43.1169" rx="6.63229" ry="6.62338" fill="white"/>
<ellipse cx="70.7446" cy="43.1169" rx="6.63229" ry="6.62338" fill="white"/>
<ellipse cx="92.852" cy="43.1169" rx="6.63229" ry="6.62338" fill="white"/>
<path fill-rule="evenodd" clip-rule="evenodd" d="M223.595 304.994C221.48 305.244 219.288 305.375 217.042 305.375C199.414 305.375 185.124 297.288 185.124 287.312C185.124 277.337 199.414 269.25 217.042 269.25C228.746 269.25 238.979 272.815 244.535 278.131C246.65 277.881 248.842 277.75 251.088 277.75C268.716 277.75 283.006 285.837 283.006 295.812C283.006 305.788 268.716 313.875 251.088 313.875C239.384 313.875 229.151 310.31 223.595 304.994Z" fill="#DFE2FA"/>
<defs>
<filter id="filter0_d_5661_546" x="281.821" y="26.4935" width="37.686" height="37.6623" filterUnits="userSpaceOnUse" color-interpolation-filters="sRGB">
<feFlood flood-opacity="0" result="BackgroundImageFix"/>
<feColorMatrix in="SourceAlpha" type="matrix" values="0 0 0 0 0 0 0 0 0 0 0 0 0 0 0 0 0 0 127 0" result="hardAlpha"/>
<feOffset/>
<feGaussianBlur stdDeviation="5"/>
<feColorMatrix type="matrix" values="0 0 0 0 0.368627 0 0 0 0 0.462745 0 0 0 0 0.980392 0 0 0 0.25 0"/>
<feBlend mode="normal" in2="BackgroundImageFix" result="effect1_dropShadow_5661_546"/>
<feBlend mode="normal" in="SourceGraphic" in2="effect1_dropShadow_5661_546" result="shape"/>
</filter>
<filter id="filter1_d_5661_546" x="102.749" y="207.533" width="46.5293" height="46.4935" filterUnits="userSpaceOnUse" color-interpolation-filters="sRGB">
<feFlood flood-opacity="0" result="BackgroundImageFix"/>
<feColorMatrix in="SourceAlpha" type="matrix" values="0 0 0 0 0 0 0 0 0 0 0 0 0 0 0 0 0 0 127 0" result="hardAlpha"/>
<feOffset/>
<feGaussianBlur stdDeviation="5"/>
<feColorMatrix type="matrix" values="0 0 0 0 0.368627 0 0 0 0 0.462745 0 0 0 0 0.980392 0 0 0 0.25 0"/>
<feBlend mode="normal" in2="BackgroundImageFix" result="effect1_dropShadow_5661_546"/>
<feBlend mode="normal" in="SourceGraphic" in2="effect1_dropShadow_5661_546" result="shape"/>
</filter>
<filter id="filter2_d_5661_546" x="359.197" y="167.792" width="64.2153" height="64.1559" filterUnits="userSpaceOnUse" color-interpolation-filters="sRGB">
<feFlood flood-opacity="0" result="BackgroundImageFix"/>
<feColorMatrix in="SourceAlpha" type="matrix" values="0 0 0 0 0 0 0 0 0 0 0 0 0 0 0 0 0 0 127 0" result="hardAlpha"/>
<feOffset/>
<feGaussianBlur stdDeviation="5"/>
<feColorMatrix type="matrix" values="0 0 0 0 0.368627 0 0 0 0 0.462745 0 0 0 0 0.980392 0 0 0 0.25 0"/>
<feBlend mode="normal" in2="BackgroundImageFix" result="effect1_dropShadow_5661_546"/>
<feBlend mode="normal" in="SourceGraphic" in2="effect1_dropShadow_5661_546" result="shape"/>
</filter>
<filter id="filter3_d_5661_546" x="146.964" y="0" width="59.7939" height="59.7403" filterUnits="userSpaceOnUse" color-interpolation-filters="sRGB">
<feFlood flood-opacity="0" result="BackgroundImageFix"/>
<feColorMatrix in="SourceAlpha" type="matrix" values="0 0 0 0 0 0 0 0 0 0 0 0 0 0 0 0 0 0 127 0" result="hardAlpha"/>
<feOffset/>
<feGaussianBlur stdDeviation="5"/>
<feColorMatrix type="matrix" values="0 0 0 0 0.368627 0 0 0 0 0.462745 0 0 0 0 0.980392 0 0 0 0.25 0"/>
<feBlend mode="normal" in2="BackgroundImageFix" result="effect1_dropShadow_5661_546"/>
<feBlend mode="normal" in="SourceGraphic" in2="effect1_dropShadow_5661_546" result="shape"/>
</filter>
</defs>
</svg>
