<svg width="31" height="31" viewBox="0 0 31 31" fill="none" xmlns="http://www.w3.org/2000/svg">
<path d="M28.8545 21.1452C27.9321 23.3272 26.4893 25.25 24.6523 26.7454C22.8154 28.2408 20.6401 29.2634 18.3168 29.7236C15.9934 30.1839 13.5927 30.0679 11.3246 29.3857C9.05643 28.7036 6.98987 27.476 5.30558 25.8104C3.62128 24.1449 2.37054 22.0919 1.66269 19.8311C0.954847 17.5703 0.811453 15.1705 1.24505 12.8415C1.67864 10.5125 2.67602 8.32512 4.14999 6.47072C5.62396 4.61632 7.52963 3.15131 9.70041 2.20378M30 15.5034C30 13.5988 29.625 11.7128 28.8963 9.95318C28.1676 8.19355 27.0996 6.59471 25.7531 5.24794C24.4067 3.90118 22.8083 2.83287 21.0491 2.104C19.2899 1.37514 17.4044 1 15.5003 1V15.5034H30Z" stroke="#85A5C8" stroke-width="2" stroke-linecap="round" stroke-linejoin="round"/>
</svg>
