<svg width="32" height="22" viewBox="0 0 32 22" fill="none" xmlns="http://www.w3.org/2000/svg">
<path d="M27.2 9.42857C29.41 9.42857 31.2 7.67054 31.2 5.5C31.2 3.32946 29.41 1.57143 27.2 1.57143C24.99 1.57143 23.2 3.32946 23.2 5.5C23.2 7.67054 24.99 9.42857 27.2 9.42857ZM27.2 3.14286C28.525 3.14286 29.6 4.19866 29.6 5.5C29.6 6.80134 28.525 7.85714 27.2 7.85714C25.875 7.85714 24.8 6.80134 24.8 5.5C24.8 4.19866 25.875 3.14286 27.2 3.14286ZM16 11C19.095 11 21.6 8.53973 21.6 5.5C21.6 2.46027 19.095 0 16 0C12.905 0 10.4 2.46027 10.4 5.5C10.4 8.53973 12.905 11 16 11ZM16 1.57143C18.205 1.57143 20 3.33438 20 5.5C20 7.66562 18.205 9.42857 16 9.42857C13.795 9.42857 12 7.66562 12 5.5C12 3.33438 13.795 1.57143 16 1.57143ZM28.2 11H26.2C25.44 11 24.735 11.2357 24.145 11.6335C24.615 11.9478 25.04 12.3161 25.415 12.7335C25.66 12.6304 25.925 12.5714 26.2 12.5714H28.2C29.41 12.5714 30.4 13.6272 30.4 14.9286C30.4 15.3607 30.76 15.7143 31.2 15.7143C31.64 15.7143 32 15.3607 32 14.9286C32 12.7629 30.295 11 28.2 11ZM4.8 9.42857C7.01 9.42857 8.8 7.67054 8.8 5.5C8.8 3.32946 7.01 1.57143 4.8 1.57143C2.59 1.57143 0.8 3.32946 0.8 5.5C0.8 7.67054 2.59 9.42857 4.8 9.42857ZM4.8 3.14286C6.125 3.14286 7.2 4.19866 7.2 5.5C7.2 6.80134 6.125 7.85714 4.8 7.85714C3.475 7.85714 2.4 6.80134 2.4 5.5C2.4 4.19866 3.475 3.14286 4.8 3.14286ZM20.005 11.9821C18.335 11.9821 17.92 12.5714 16 12.5714C14.08 12.5714 13.665 11.9821 11.995 11.9821C10.18 11.9821 8.415 12.7777 7.38 14.2853C6.76 15.1888 6.4 16.2741 6.4 17.4429V19.6429C6.4 20.9442 7.475 22 8.8 22H23.2C24.525 22 25.6 20.9442 25.6 19.6429V17.4429C25.6 16.2741 25.24 15.1888 24.62 14.2853C23.585 12.7777 21.82 11.9821 20.005 11.9821ZM24 19.6429C24 20.075 23.64 20.4286 23.2 20.4286H8.8C8.36 20.4286 8 20.075 8 19.6429V17.4429C8 16.6277 8.245 15.8371 8.705 15.1643C9.395 14.1576 10.625 13.5536 11.99 13.5536C13.36 13.5536 13.85 14.1429 16 14.1429C18.15 14.1429 18.64 13.5536 20.005 13.5536C21.37 13.5536 22.6 14.1576 23.29 15.1643C23.75 15.8371 23.995 16.6277 23.995 17.4429V19.6429H24ZM7.855 11.6335C7.26 11.2357 6.555 11 5.8 11H3.8C1.705 11 0 12.7629 0 14.9286C0 15.3607 0.36 15.7143 0.8 15.7143C1.24 15.7143 1.6 15.3607 1.6 14.9286C1.6 13.6272 2.59 12.5714 3.8 12.5714H5.8C6.075 12.5714 6.34 12.6304 6.585 12.7335C6.96 12.3161 7.39 11.9478 7.855 11.6335Z" fill="#85A5C8"/>
</svg>
